<?xml version="1.0" standalone="no"?>
<!DOCTYPE svg PUBLIC "-//W3C//DTD SVG 20010904//EN"
 "http://www.w3.org/TR/2001/REC-SVG-20010904/DTD/svg10.dtd">
<svg version="1.0" xmlns="http://www.w3.org/2000/svg"
 width="600.000000pt" height="400.000000pt" viewBox="0 0 600.000000 400.000000"
 preserveAspectRatio="xMidYMid meet">

<g transform="translate(0.000000,400.000000) scale(0.100000,-0.100000)"
fill="#000000" stroke="none">
<path d="M2765 2562 c-81 -4 -97 -10 -93 -35 2 -17 9 -21 31 -19 34 4 42 -15
52 -125 l7 -83 -51 0 c-37 0 -53 -4 -58 -15 -8 -22 -3 -25 45 -28 22 -1 44 -6
48 -9 3 -4 4 -26 0 -50 -5 -33 -14 -48 -39 -65 -17 -13 -45 -34 -61 -48 -16
-14 -33 -25 -37 -25 -4 0 -14 -12 -21 -27 -24 -47 -43 -78 -51 -84 -10 -7 -4
-51 11 -91 17 -41 70 -75 132 -84 73 -10 110 -7 235 21 44 9 84 21 90 26 5 5
21 9 35 9 14 0 35 7 47 15 19 13 22 13 27 -2 4 -9 6 -54 5 -98 -2 -76 12 -148
32 -170 5 -5 9 -17 9 -27 0 -10 5 -18 11 -18 7 0 8 11 3 33 -7 33 -8 223 -1
289 2 20 11 48 20 62 16 24 16 26 -5 41 -12 8 -31 15 -41 15 -16 0 -18 -5 -14
-29 7 -35 -29 -81 -65 -81 -13 0 -41 -7 -63 -14 -70 -25 -224 -47 -279 -40
-88 10 -115 22 -135 61 -28 55 -5 117 70 188 32 30 62 55 67 55 13 0 20 -106
11 -142 -5 -20 -4 -28 5 -28 13 0 36 95 36 149 0 48 14 67 67 91 27 12 63 29
82 38 24 12 61 17 122 17 94 1 113 7 84 29 -17 12 -16 14 13 24 18 6 32 13 32
16 0 4 -100 1 -285 -8 -95 -5 -95 -5 -93 78 1 39 -2 83 -6 98 -7 24 -4 29 15
37 26 9 125 19 262 27 118 6 148 23 47 26 -107 3 -296 3 -355 0z m145 -318
c-19 -9 -52 -24 -72 -35 -46 -24 -48 -24 -48 0 0 42 8 47 83 48 l72 2 -35 -15z"/>
</g>
</svg>
